<svg width="40" height="40" viewBox="0 0 40 40" fill="none" xmlns="http://www.w3.org/2000/svg">
<g clip-path="url(#clip0_337_617)">
<path d="M38.048 15.2853L31.583 8.82027C31.2687 8.51667 30.8477 8.34868 30.4107 8.35248C29.9737 8.35628 29.5557 8.53156 29.2467 8.84057C28.9377 9.14959 28.7624 9.56761 28.7586 10.0046C28.7548 10.4416 28.9228 10.8626 29.2264 11.1769L35.6914 17.6419C35.8834 17.8378 36.0513 18.056 36.1914 18.2919C36.1664 18.2919 36.1464 18.2786 36.1214 18.2786L9.98136 18.3319C9.53934 18.3319 9.11541 18.5075 8.80285 18.8201C8.49029 19.1327 8.3147 19.5566 8.3147 19.9986C8.3147 20.4406 8.49029 20.8646 8.80285 21.1771C9.11541 21.4897 9.53934 21.6653 9.98136 21.6653L36.1114 21.6119C36.158 21.6119 36.1964 21.5886 36.2414 21.5853C36.0935 21.8672 35.9061 22.1265 35.6847 22.3553L29.2197 28.8203C29.0605 28.974 28.9335 29.1579 28.8462 29.3613C28.7588 29.5646 28.7129 29.7833 28.7109 30.0046C28.709 30.2259 28.7512 30.4454 28.835 30.6502C28.9188 30.855 29.0426 31.0411 29.199 31.1976C29.3555 31.3541 29.5416 31.4778 29.7464 31.5616C29.9513 31.6454 30.1707 31.6876 30.392 31.6857C30.6133 31.6838 30.832 31.6378 31.0354 31.5504C31.2387 31.4631 31.4226 31.3361 31.5764 31.1769L38.0414 24.7119C39.2912 23.4618 39.9933 21.7664 39.9933 19.9986C39.9933 18.2308 39.2912 16.5355 38.0414 15.2853H38.048Z" fill="#DB3030"/>
<path d="M11.6667 36.6667H8.33333C7.00725 36.6667 5.73548 36.1399 4.7978 35.2022C3.86012 34.2645 3.33333 32.9927 3.33333 31.6667V8.33333C3.33333 7.00725 3.86012 5.73548 4.7978 4.7978C5.73548 3.86012 7.00725 3.33333 8.33333 3.33333H11.6667C12.1087 3.33333 12.5326 3.15774 12.8452 2.84518C13.1577 2.53262 13.3333 2.10869 13.3333 1.66667C13.3333 1.22464 13.1577 0.800716 12.8452 0.488155C12.5326 0.175595 12.1087 0 11.6667 0L8.33333 0C6.12401 0.00264643 4.00593 0.88147 2.4437 2.4437C0.88147 4.00593 0.00264643 6.12401 0 8.33333L0 31.6667C0.00264643 33.876 0.88147 35.9941 2.4437 37.5563C4.00593 39.1185 6.12401 39.9974 8.33333 40H11.6667C12.1087 40 12.5326 39.8244 12.8452 39.5118C13.1577 39.1993 13.3333 38.7754 13.3333 38.3333C13.3333 37.8913 13.1577 37.4674 12.8452 37.1548C12.5326 36.8423 12.1087 36.6667 11.6667 36.6667Z" fill="#DB3030"/>
</g>
<defs>
<clipPath id="clip0_337_617">
<rect width="40" height="40" fill="white"/>
</clipPath>
</defs>
</svg>
