<svg width="40" height="40" viewBox="0 0 40 40" fill="none" xmlns="http://www.w3.org/2000/svg">
<g clip-path="url(#clip0_337_609)">
<path d="M31.6667 10H21.6667C20.1447 10.0056 18.6535 10.429 17.3556 11.224C16.0578 12.019 15.0031 13.1551 14.3067 14.5084C13.3073 13.7497 12.088 13.3372 10.8333 13.3334C9.28624 13.3334 7.80251 13.948 6.70854 15.0419C5.61458 16.1359 5 17.6196 5 19.1667C5.00488 20.0334 5.20482 20.8878 5.585 21.6667H3.33333V5.00004C3.33333 4.55801 3.15774 4.13409 2.84518 3.82153C2.53262 3.50897 2.10869 3.33337 1.66667 3.33337C1.22464 3.33337 0.800716 3.50897 0.488155 3.82153C0.175595 4.13409 0 4.55801 0 5.00004L0 35C0 35.4421 0.175595 35.866 0.488155 36.1786C0.800716 36.4911 1.22464 36.6667 1.66667 36.6667C2.10869 36.6667 2.53262 36.4911 2.84518 36.1786C3.15774 35.866 3.33333 35.4421 3.33333 35V31.6667H36.6667V35C36.6667 35.4421 36.8423 35.866 37.1548 36.1786C37.4674 36.4911 37.8913 36.6667 38.3333 36.6667C38.7754 36.6667 39.1993 36.4911 39.5118 36.1786C39.8244 35.866 40 35.4421 40 35V18.3334C39.9974 16.124 39.1185 14.006 37.5563 12.4437C35.9941 10.8815 33.876 10.0027 31.6667 10ZM16.6667 18.3334C16.6667 17.0073 17.1934 15.7355 18.1311 14.7978C19.0688 13.8602 20.3406 13.3334 21.6667 13.3334H31.6667C32.9927 13.3334 34.2645 13.8602 35.2022 14.7978C36.1399 15.7355 36.6667 17.0073 36.6667 18.3334V21.6667H16.6667V18.3334ZM8.33333 19.1667C8.33333 18.6723 8.47996 18.1889 8.75466 17.7778C9.02936 17.3667 9.41981 17.0462 9.87662 16.857C10.3334 16.6678 10.8361 16.6183 11.3211 16.7147C11.806 16.8112 12.2515 17.0493 12.6011 17.3989C12.9507 17.7486 13.1888 18.194 13.2853 18.679C13.3818 19.1639 13.3323 19.6666 13.143 20.1234C12.9538 20.5802 12.6334 20.9707 12.2223 21.2454C11.8111 21.5201 11.3278 21.6667 10.8333 21.6667C10.1703 21.6667 9.53441 21.4033 9.06557 20.9345C8.59672 20.4656 8.33333 19.8298 8.33333 19.1667ZM3.33333 28.3334V25H36.6667V28.3334H3.33333Z" fill="white"/>
</g>
<defs>
<clipPath id="clip0_337_609">
<rect width="40" height="40" fill="white"/>
</clipPath>
</defs>
</svg>
