<svg width="41" height="40" viewBox="0 0 41 40" fill="none" xmlns="http://www.w3.org/2000/svg">
<g clip-path="url(#clip0_337_604)">
<path d="M20.5 19.9999C22.4778 19.9999 24.4112 19.4134 26.0557 18.3146C27.7002 17.2158 28.9819 15.654 29.7388 13.8267C30.4957 11.9995 30.6937 9.98879 30.3079 8.04898C29.922 6.10917 28.9696 4.32734 27.5711 2.92881C26.1725 1.53029 24.3907 0.577882 22.4509 0.19203C20.5111 -0.193823 18.5004 0.00421079 16.6732 0.761087C14.8459 1.51796 13.2841 2.79969 12.1853 4.44418C11.0865 6.08867 10.5 8.02207 10.5 9.99988C10.5026 12.6512 11.5571 15.1932 13.4319 17.068C15.3066 18.9428 17.8486 19.9972 20.5 19.9999ZM20.5 3.33322C21.8185 3.33322 23.1075 3.72421 24.2038 4.45675C25.3001 5.18929 26.1546 6.23049 26.6592 7.44866C27.1638 8.66683 27.2958 10.0073 27.0386 11.3005C26.7813 12.5937 26.1464 13.7816 25.214 14.7139C24.2817 15.6463 23.0938 16.2812 21.8006 16.5385C20.5074 16.7957 19.167 16.6637 17.9488 16.1591C16.7306 15.6545 15.6894 14.8 14.9569 13.7037C14.2243 12.6074 13.8333 11.3184 13.8333 9.99988C13.8333 8.23177 14.5357 6.53608 15.786 5.28584C17.0362 4.03559 18.7319 3.33322 20.5 3.33322Z" fill="white"/>
<path d="M20.5 23.3344C16.5231 23.3388 12.7104 24.9205 9.89827 27.7326C7.08618 30.5447 5.50441 34.3575 5.5 38.3344C5.5 38.7764 5.67559 39.2003 5.98816 39.5129C6.30072 39.8254 6.72464 40.001 7.16667 40.001C7.60869 40.001 8.03262 39.8254 8.34518 39.5129C8.65774 39.2003 8.83333 38.7764 8.83333 38.3344C8.83333 35.2402 10.0625 32.2727 12.2504 30.0848C14.4383 27.8968 17.4058 26.6677 20.5 26.6677C23.5942 26.6677 26.5617 27.8968 28.7496 30.0848C30.9375 32.2727 32.1667 35.2402 32.1667 38.3344C32.1667 38.7764 32.3423 39.2003 32.6548 39.5129C32.9674 39.8254 33.3913 40.001 33.8333 40.001C34.2754 40.001 34.6993 39.8254 35.0118 39.5129C35.3244 39.2003 35.5 38.7764 35.5 38.3344C35.4956 34.3575 33.9138 30.5447 31.1017 27.7326C28.2896 24.9205 24.4769 23.3388 20.5 23.3344Z" fill="white"/>
</g>
<defs>
<clipPath id="clip0_337_604">
<rect width="40" height="40" fill="white" transform="translate(0.5)"/>
</clipPath>
</defs>
</svg>
